<svg xmlns="http://www.w3.org/2000/svg" xmlns:xlink="http://www.w3.org/1999/xlink" width="500" zoomAndPan="magnify" viewBox="0 0 375 374.999991" height="500" preserveAspectRatio="xMidYMid meet" version="1.0"><defs><clipPath id="264511a007"><path d="M 209 72 L 375 72 L 375 298.578125 L 209 298.578125 Z M 209 72 " clip-rule="nonzero"/></clipPath><clipPath id="85c95ef4be"><path d="M 86 71.328125 L 341 71.328125 L 341 288 L 86 288 Z M 86 71.328125 " clip-rule="nonzero"/></clipPath></defs><path fill="#5ab334" d="M 64.214844 190.441406 C 64.214844 183.640625 58.710938 178.125 51.921875 178.125 L 12.300781 178.125 C 5.511719 178.125 0.0078125 183.640625 0.0078125 190.441406 C 0.0078125 197.242188 5.511719 202.757812 12.300781 202.757812 L 51.921875 202.757812 C 58.710938 202.757812 64.214844 197.242188 64.214844 190.441406 " fill-opacity="1" fill-rule="nonzero"/><path fill="#5ab334" d="M 91.5 227.386719 L 68.472656 227.386719 C 61.679688 227.386719 56.175781 232.902344 56.175781 239.703125 C 56.175781 246.507812 61.679688 252.019531 68.472656 252.019531 L 91.5 252.019531 C 98.289062 252.019531 103.796875 246.507812 103.796875 239.703125 C 103.796875 232.902344 98.289062 227.386719 91.5 227.386719 " fill-opacity="1" fill-rule="nonzero"/><g clip-path="url(#264511a007)"><path fill="#81cc2a" d="M 279.652344 72.8125 C 331.644531 99.980469 354.847656 163.085938 331.511719 218.070312 C 310.765625 266.945312 259.890625 293.753906 209.785156 286 C 225.316406 294.011719 242.929688 298.53125 261.601562 298.53125 C 324.226562 298.53125 374.992188 247.679688 374.992188 184.953125 C 374.992188 128.375 333.695312 81.472656 279.652344 72.8125 " fill-opacity="1" fill-rule="nonzero"/></g><g clip-path="url(#85c95ef4be)"><path fill="#5ab334" d="M 253.867188 195 C 231.492188 187.46875 216.234375 176.992188 216.234375 156.683594 C 216.234375 138.253906 229.191406 123.804688 251.5625 119.40625 L 251.5625 99.507812 L 272.054688 99.507812 L 272.054688 117.941406 C 286.0625 118.566406 295.46875 121.496094 302.371094 124.851562 L 296.308594 148.515625 C 290.871094 146.210938 281.253906 141.394531 266.199219 141.394531 C 252.609375 141.394531 248.21875 147.257812 248.21875 153.121094 C 248.21875 160.027344 255.539062 164.429688 273.308594 171.132812 C 298.1875 179.925781 308.222656 191.445312 308.222656 210.292969 C 308.222656 228.929688 295.050781 244.847656 271.007812 249.035156 L 271.007812 270.398438 L 250.519531 270.398438 L 250.519531 250.5 C 236.511719 249.871094 222.925781 246.101562 214.976562 241.492188 L 221.25 216.996094 C 230.03125 221.804688 242.367188 226.207031 255.953125 226.207031 C 267.871094 226.207031 276.023438 221.601562 276.023438 213.222656 C 276.023438 205.265625 269.335938 200.238281 253.867188 195 Z M 331.511719 218.070312 C 354.847656 163.085938 331.644531 99.980469 279.652344 72.8125 C 273.773438 71.871094 267.746094 71.375 261.601562 71.375 C 230.5 71.375 202.34375 83.925781 181.855469 104.230469 L 195.960938 104.230469 C 202.746094 104.230469 208.25 109.746094 208.25 116.546875 C 208.25 123.351562 202.746094 128.859375 195.960938 128.859375 L 123.503906 128.859375 C 116.714844 128.859375 111.207031 134.375 111.207031 141.175781 C 111.207031 147.980469 116.714844 153.496094 123.503906 153.496094 L 170.773438 153.496094 C 177.566406 153.496094 183.070312 159.007812 183.070312 165.8125 C 183.070312 172.609375 177.566406 178.125 170.773438 178.125 L 98.320312 178.125 C 91.527344 178.125 86.023438 183.640625 86.023438 190.441406 C 86.023438 197.242188 91.527344 202.757812 98.320312 202.757812 L 144.097656 202.757812 C 144.097656 202.757812 144.101562 202.757812 144.101562 202.757812 L 183.71875 202.757812 C 190.511719 202.757812 196.015625 208.273438 196.015625 215.074219 C 196.015625 221.875 190.511719 227.386719 183.71875 227.386719 L 131.15625 227.386719 C 124.367188 227.386719 118.859375 232.902344 118.859375 239.703125 C 118.859375 246.507812 124.367188 252.019531 131.15625 252.019531 L 170.085938 252.019531 C 180.46875 266.207031 194.058594 277.890625 209.785156 286 C 259.890625 293.753906 310.765625 266.945312 331.511719 218.070312 " fill-opacity="1" fill-rule="nonzero"/></g></svg>